<svg width="20" height="20" viewBox="0 0 20 20" fill="none" xmlns="http://www.w3.org/2000/svg">
<path fill-rule="evenodd" clip-rule="evenodd" d="M13.5 12H12.7L12.4 11.7C13.4 10.6 14 9.1 14 7.5C14 3.9 11.1 1 7.5 1C3.9 1 1 3.9 1 7.5C1 11.1 3.9 14 7.5 14C9.1 14 10.6 13.4 11.7 12.4L12 12.7V13.5L17 18.5L18.5 17L13.5 12ZM7.5 12C5 12 3 10 3 7.5C3 5 5 3 7.5 3C10 3 12 5 12 7.5C12 10 10 12 7.5 12Z" fill="#848484"/>
<path d="M13.5 12L13.8536 11.6464L13.7071 11.5H13.5V12ZM12.7 12L12.3464 12.3536L12.4929 12.5H12.7V12ZM12.4 11.7L12.03 11.3637L11.7093 11.7164L12.0464 12.0536L12.4 11.7ZM11.7 12.4L12.0536 12.0464L11.7164 11.7093L11.3637 12.03L11.7 12.4ZM12 12.7H12.5V12.4929L12.3536 12.3464L12 12.7ZM12 13.5H11.5V13.7071L11.6464 13.8536L12 13.5ZM17 18.5L16.6464 18.8536L17 19.2071L17.3536 18.8536L17 18.5ZM18.5 17L18.8536 17.3536L19.2071 17L18.8536 16.6464L18.5 17ZM13.5 11.5H12.7V12.5H13.5V11.5ZM13.0536 11.6464L12.7536 11.3464L12.0464 12.0536L12.3464 12.3536L13.0536 11.6464ZM12.77 12.0363C13.8539 10.844 14.5 9.22398 14.5 7.5H13.5C13.5 8.97602 12.9461 10.356 12.03 11.3637L12.77 12.0363ZM14.5 7.5C14.5 3.62386 11.3761 0.5 7.5 0.5V1.5C10.8239 1.5 13.5 4.17614 13.5 7.5H14.5ZM7.5 0.5C3.62386 0.5 0.5 3.62386 0.5 7.5H1.5C1.5 4.17614 4.17614 1.5 7.5 1.5V0.5ZM0.5 7.5C0.5 11.3761 3.62386 14.5 7.5 14.5V13.5C4.17614 13.5 1.5 10.8239 1.5 7.5H0.5ZM7.5 14.5C9.22398 14.5 10.844 13.8539 12.0363 12.77L11.3637 12.03C10.356 12.9461 8.97602 13.5 7.5 13.5V14.5ZM11.3464 12.7536L11.6464 13.0536L12.3536 12.3464L12.0536 12.0464L11.3464 12.7536ZM11.5 12.7V13.5H12.5V12.7H11.5ZM11.6464 13.8536L16.6464 18.8536L17.3536 18.1464L12.3536 13.1464L11.6464 13.8536ZM17.3536 18.8536L18.8536 17.3536L18.1464 16.6464L16.6464 18.1464L17.3536 18.8536ZM18.8536 16.6464L13.8536 11.6464L13.1464 12.3536L18.1464 17.3536L18.8536 16.6464ZM7.5 11.5C5.27614 11.5 3.5 9.72386 3.5 7.5H2.5C2.5 10.2761 4.72386 12.5 7.5 12.5V11.5ZM3.5 7.5C3.5 5.27614 5.27614 3.5 7.5 3.5V2.5C4.72386 2.5 2.5 4.72386 2.5 7.5H3.5ZM7.5 3.5C9.72386 3.5 11.5 5.27614 11.5 7.5H12.5C12.5 4.72386 10.2761 2.5 7.5 2.5V3.5ZM11.5 7.5C11.5 9.72386 9.72386 11.5 7.5 11.5V12.5C10.2761 12.5 12.5 10.2761 12.5 7.5H11.5Z" fill="black"/>
</svg>
